<svg id="Layer_1" data-name="Layer 1" xmlns="http://www.w3.org/2000/svg" viewBox="0 0 443 522"><defs><style>.cls-1{fill:#fff;}.cls-2{fill:#ffd600;}</style></defs><title>Artboard 2</title><path class="cls-1" d="M440.19,134.55C422.86,83.16,332.38,64.7,260.39,68.85l-11.8,73.34,67.53,46.88L298.6,243.52l43.4,22.3.2,26.28C400.23,251.36,457,184.43,440.19,134.55Z"/><path class="cls-1" d="M127.42,199.64,182,182.52l-.68-82.2L248,67.64c-14.1-17.69-29-32.62-42.7-42.64A129,129,0,0,0,53.26,233.42c15,11,36.05,21.42,59.65,29.86L134.26,248Z"/><path class="cls-1" d="M401,456s-4-52-84-101-69-132-69-132,3-40-35-20-98,173-98,173-21,88,47,114S422,561,401,456Z"/><ellipse class="cls-2" cx="276.32" cy="428.23" rx="46.1" ry="64.54" transform="translate(-232.23 394.81) rotate(-53.41)"/></svg>